{"title":"The.Assassin.2015.BRRip.480p.x264.AAC-VYTO [P2PDL]","uid":13097065,"size":425299482,"categoryP":"video","categoryS":"movies","magnet":"?xt=urn:btih:39decab89bc2267b964ce0210accf4b1aa215531&amp;dn=The.Assassin.2015.BRRip.480p.x264.AAC-VYTO+%5BP2PDL%5D&amp;tr=udp%3A%2F%2Ftracker.leechers-paradise.org%3A6969&amp;tr=udp%3A%2F%2Fzer0day.ch%3A1337&amp;tr=udp%3A%2F%2Fopen.demonii.com%3A1337&amp;tr=udp%3A%2F%2Ftracker.coppersurfer.tk%3A6969&amp;tr=udp%3A%2F%2Fexodus.desync.com%3A6969","seeders":3,"leechers":0,"uploader":"VYTOP2PDL","files":7,"time":1451142775,"description":"____    ____ ____    ____ .___________.  ______   \r\n     /   /      /   / |           | /  __    \r\n    /   /      /   /  `---|  |----`|  |  |  | \r\n        /     _    _/       |  |     |  |  |  | \r\n       /        |  |         |  |     |  `--'  | \r\n    __/         |__|         |__|      ______/  \r\n                                                  \r\nPresenting Small Encodes with quality for years!\r\n                                                                                                   \r\n                                                                                                   \r\n\r\nThe.Assassin.2015.BRRip.480p.x264.AAC-VYTO\r\n\r\n\r\nGenre: Drama  \nhttp://www.imdb.com/title/tt3508840/\r\n\r\n\r\nFormat                                   : MPEG-4\r\nFile size                                : 401 MiB\r\nDuration                                 : 1h 45mn\r\nOverall bit rate                         : 532 Kbps\r\n\r\nVideo\r\nFormat                                   : AVC\r\nDuration                                 : 1h 45mn\r\nBit rate                                 : 497 Kbps\r\nWidth                                    : 1 280 pixels\r\nHeight                                   : 688 pixels\r\nDisplay aspect ratio                     : 1.85:1\r\nFrame rate mode                          : Constant\r\nFrame rate                               : 24.000 fps\r\nBit depth                                : 8 bits\r\nStream size                              : 375 MiB (93%)\r\nWriting library                          : x264\r\n\r\nAudio\r\nFormat                                   : AAC\r\nBit rate mode                            : Variable\r\nBit rate                                 : 31.8 Kbps\r\nChannel(s)                               : 2 channels\r\nChannel positions                        : Front: L R \r\nSampling rate                            : 48.0 KHz \r\nFrame rate                               : 23.438 fps \r\nStream size                              : 24.0 MiB (6%)\r\nLanguage                                 : Chinese\r\n\r\nSubtitle                                 : Yes (English)\r\n\r\nScreen Shots: (Click to view)\r\n \nhttp://ititli.com/yL \nhttp://ititli.com/yd \nhttp://ititli.com/y0 \nhttp://ititli.com/yA \nhttp://ititli.com/yl \nhttp://ititli.com/ym \nhttp://ititli.com/yx \nhttp://ititli.com/y7\r\n\r\n----------------------------------------------------------------------------------------------------\r\n\r\n\r\nEncoder Notes: Looking For Early Access To Anything You Can Provide WEBDL, DVDScr, DVDR, BluRay,\r\nDirect Audio, Music Releases and Seedboxes. If You Got anything to offer please contact us.\r\n\r\nSupport us by donating BC - 1FgwdzPsd1y25Gea8wP1qni35uGCtmkRCD\r\n\r\nSend some love!\r\nFind us and join us!","torrent":{"xt":"urn:btih:39decab89bc2267b964ce0210accf4b1aa215531","amp;dn":"The.Assassin.2015.BRRip.480p.x264.AAC-VYTO+%5BP2PDL%5D","amp;tr":["udp%3A%2F%2Ftracker.leechers-paradise.org%3A6969","udp%3A%2F%2Fzer0day.ch%3A1337","udp%3A%2F%2Fopen.demonii.com%3A1337","udp%3A%2F%2Ftracker.coppersurfer.tk%3A6969","udp%3A%2F%2Fexodus.desync.com%3A6969"],"infoHash":"39decab89bc2267b964ce0210accf4b1aa215531","infoHashBuffer":{"type":"Buffer","data":[57,222,202,184,155,194,38,123,150,76,224,33,10,204,244,177,170,33,85,49]},"announce":[],"urlList":[]}}